<?xml version="1.0" encoding="utf-8"?>
<!-- Generator: Adobe Illustrator 24.2.1, SVG Export Plug-In . SVG Version: 6.00 Build 0)  -->
<svg version="1.1" xmlns="http://www.w3.org/2000/svg" xmlns:xlink="http://www.w3.org/1999/xlink" x="0px" y="0px"
	 viewBox="0 0 880 270" style="enable-background:new 0 0 880 270;" xml:space="preserve">
<style type="text/css">
	.st0{fill:#00FF00;}
	.st1{fill:#0077FF;}
	.st2{fill:#FFFFFF;}
</style>
<g id="Sangria">
</g>
<g id="Logo">
	<path class="st0" d="M195.8,260.5h17.86c15.93,0,23.9-19.26,12.64-30.52l0,0l-30.5-30.51v-0.01h-0.01l0,0v0l-114.74,0V92.12
		c0-4.74-1.88-9.29-5.24-12.64L50.53,54.2l0,0c-11.26-11.26-30.52-3.29-30.52,12.64v17.88v114.75H20l0,61.04h0.01v0h61.03l0,0H195.8
		L195.8,260.5z"/>
	<path class="st1" d="M94.2,10.5H76.34c-15.93,0-23.9,19.26-12.64,30.52l0,0l30.5,30.51v0.01h0.01l0,0v0l114.74,0v107.34
		c0,4.74,1.88,9.29,5.24,12.64l25.28,25.28l0,0c11.26,11.26,30.52,3.29,30.52-12.64v-17.88V71.54H270l0-61.04h-0.01v0l-61.03,0l0,0
		L94.2,10.5L94.2,10.5z"/>
	<g>
		<path class="st2" d="M321.87,176.22c-4.84,0-9.18-0.74-13.03-2.23c-3.85-1.49-7.1-3.68-9.77-6.56c-2.67-2.88-4.71-6.4-6.14-10.56
			c-1.43-4.15-2.14-8.93-2.14-14.33c0-5.4,0.82-10.17,2.47-14.33c1.64-4.15,3.89-7.68,6.75-10.56c2.85-2.88,6.2-5.07,10.05-6.56
			c3.85-1.49,7.97-2.23,12.37-2.23c2.67,0,5.08,0.2,7.26,0.61c2.17,0.4,4.06,0.85,5.68,1.35c1.61,0.5,2.95,1.02,4,1.58
			c1.05,0.56,1.8,0.96,2.23,1.21l-3.44,9.58c-1.49-0.93-3.61-1.81-6.37-2.65c-2.76-0.84-5.75-1.26-8.98-1.26
			c-2.79,0-5.4,0.48-7.82,1.44c-2.42,0.96-4.51,2.4-6.28,4.33c-1.77,1.92-3.15,4.34-4.14,7.26c-0.99,2.92-1.49,6.3-1.49,10.14
			c0,3.41,0.39,6.55,1.16,9.4c0.78,2.85,1.97,5.32,3.58,7.4c1.61,2.08,3.66,3.69,6.14,4.84c2.48,1.15,5.46,1.72,8.93,1.72
			c4.15,0,7.54-0.42,10.14-1.26c2.61-0.84,4.62-1.63,6.05-2.37l3.16,9.58c-0.74,0.5-1.75,0.99-3.02,1.49
			c-1.27,0.5-2.78,0.98-4.51,1.44c-1.74,0.46-3.69,0.84-5.86,1.12C326.68,176.08,324.35,176.22,321.87,176.22z"/>
		<path class="st2" d="M368.2,124.96c3.72,0,6.85,0.46,9.4,1.4c2.54,0.93,4.57,2.23,6.1,3.91c1.52,1.67,2.6,3.71,3.26,6.09
			c0.65,2.39,0.98,5.01,0.98,7.86v29.49c-1.74,0.37-4.36,0.82-7.86,1.35c-3.5,0.53-7.46,0.79-11.86,0.79c-2.92,0-5.58-0.28-8-0.84
			c-2.42-0.56-4.48-1.46-6.19-2.7c-1.71-1.24-3.04-2.85-4-4.84c-0.96-1.98-1.44-4.43-1.44-7.35c0-2.79,0.54-5.15,1.63-7.07
			c1.08-1.92,2.56-3.49,4.42-4.7c1.86-1.21,4.02-2.08,6.47-2.6c2.45-0.53,5.01-0.79,7.68-0.79c1.24,0,2.54,0.08,3.91,0.23
			c1.36,0.16,2.82,0.42,4.37,0.79v-1.86c0-1.3-0.16-2.54-0.47-3.72c-0.31-1.18-0.85-2.22-1.63-3.12c-0.78-0.9-1.8-1.6-3.07-2.09
			c-1.27-0.5-2.87-0.74-4.79-0.74c-2.6,0-4.99,0.19-7.16,0.56c-2.17,0.37-3.94,0.81-5.3,1.3l-1.4-9.12c1.43-0.5,3.5-0.99,6.23-1.49
			C362.19,125.21,365.1,124.96,368.2,124.96z M369.13,166.92c3.48,0,6.11-0.19,7.91-0.56V153.9c-0.62-0.19-1.52-0.37-2.7-0.56
			c-1.18-0.19-2.48-0.28-3.91-0.28c-1.24,0-2.5,0.09-3.77,0.28s-2.42,0.53-3.44,1.02c-1.02,0.5-1.85,1.2-2.47,2.09
			c-0.62,0.9-0.93,2.03-0.93,3.4c0,2.67,0.84,4.51,2.51,5.54C364.02,166.41,366.28,166.92,369.13,166.92z"/>
		<path class="st2" d="M401.7,127.75c2.17-0.62,4.99-1.21,8.47-1.77c3.47-0.56,7.32-0.84,11.54-0.84c3.97,0,7.29,0.54,9.96,1.63
			c2.67,1.09,4.79,2.61,6.37,4.56s2.7,4.31,3.35,7.07c0.65,2.76,0.98,5.78,0.98,9.07v27.35H431.1v-25.59c0-2.6-0.17-4.82-0.51-6.65
			c-0.34-1.83-0.9-3.32-1.67-4.47c-0.78-1.15-1.83-1.98-3.16-2.51c-1.33-0.53-2.96-0.79-4.89-0.79c-1.43,0-2.92,0.09-4.47,0.28
			c-1.55,0.19-2.7,0.34-3.44,0.47v39.26H401.7V127.75z"/>
		<path class="st2" d="M481.52,176.22c-4.4,0-8.19-0.64-11.35-1.91s-5.78-3.05-7.86-5.35c-2.08-2.3-3.61-4.99-4.6-8.1
			c-0.99-3.1-1.49-6.51-1.49-10.23v-40.29h11.82v39.17c0,2.92,0.33,5.41,0.98,7.49c0.65,2.08,1.58,3.77,2.79,5.07
			c1.21,1.3,2.63,2.26,4.28,2.88c1.64,0.62,3.49,0.93,5.54,0.93c2.05,0,3.91-0.31,5.58-0.93c1.67-0.62,3.12-1.58,4.33-2.88
			c1.21-1.3,2.14-2.99,2.79-5.07c0.65-2.08,0.98-4.57,0.98-7.49v-39.17h11.82v40.29c0,3.72-0.51,7.13-1.54,10.23
			c-1.02,3.1-2.57,5.8-4.65,8.1c-2.08,2.29-4.73,4.08-7.95,5.35C489.74,175.59,485.93,176.22,481.52,176.22z"/>
		<path class="st2" d="M533.72,166.73c2.98,0,5.15-0.36,6.51-1.07c1.36-0.71,2.05-1.94,2.05-3.67c0-1.61-0.73-2.95-2.19-4
			c-1.46-1.05-3.86-2.2-7.21-3.44c-2.05-0.74-3.92-1.53-5.63-2.37c-1.71-0.84-3.18-1.81-4.42-2.93c-1.24-1.12-2.22-2.47-2.93-4.05
			c-0.71-1.58-1.07-3.52-1.07-5.81c0-4.47,1.64-7.99,4.93-10.56c3.29-2.57,7.75-3.86,13.4-3.86c2.85,0,5.58,0.26,8.19,0.79
			c2.61,0.53,4.56,1.04,5.86,1.54l-2.05,9.12c-1.24-0.56-2.82-1.07-4.74-1.53c-1.92-0.47-4.16-0.7-6.7-0.7
			c-2.29,0-4.16,0.39-5.58,1.16c-1.43,0.78-2.14,1.97-2.14,3.58c0,0.81,0.14,1.52,0.42,2.14c0.28,0.62,0.76,1.2,1.44,1.72
			c0.68,0.53,1.58,1.06,2.7,1.58c1.12,0.53,2.48,1.07,4.09,1.63c2.67,0.99,4.93,1.97,6.79,2.93c1.86,0.96,3.4,2.05,4.61,3.26
			c1.21,1.21,2.09,2.59,2.65,4.14c0.56,1.55,0.84,3.41,0.84,5.58c0,4.65-1.72,8.17-5.16,10.56c-3.44,2.39-8.36,3.58-14.75,3.58
			c-4.28,0-7.72-0.36-10.33-1.07c-2.61-0.71-4.44-1.29-5.49-1.72l1.95-9.4c1.67,0.68,3.67,1.33,6,1.95
			C528.09,166.42,530.74,166.73,533.72,166.73z"/>
		<path class="st2" d="M561.35,150.73c0-4.28,0.64-8.03,1.91-11.26c1.27-3.22,2.96-5.91,5.07-8.05c2.11-2.14,4.53-3.75,7.26-4.84
			c2.73-1.08,5.52-1.63,8.37-1.63c6.7,0,11.92,2.08,15.68,6.23c3.75,4.16,5.63,10.36,5.63,18.61c0,0.62-0.02,1.32-0.05,2.09
			c-0.03,0.78-0.08,1.47-0.14,2.09h-32.1c0.31,3.91,1.69,6.93,4.14,9.07c2.45,2.14,6,3.21,10.65,3.21c2.73,0,5.22-0.25,7.49-0.74
			c2.26-0.5,4.05-1.02,5.35-1.58l1.49,9.21c-0.62,0.31-1.47,0.64-2.56,0.98c-1.09,0.34-2.33,0.65-3.72,0.93
			c-1.4,0.28-2.9,0.51-4.51,0.7c-1.61,0.19-3.26,0.28-4.93,0.28c-4.28,0-8-0.64-11.16-1.91c-3.16-1.27-5.77-3.04-7.81-5.3
			c-2.05-2.26-3.57-4.93-4.56-8C561.84,157.76,561.35,154.39,561.35,150.73z M594.01,145.71c0-1.55-0.22-3.02-0.65-4.42
			c-0.43-1.4-1.07-2.61-1.91-3.63c-0.84-1.02-1.86-1.83-3.07-2.42c-1.21-0.59-2.65-0.88-4.33-0.88c-1.74,0-3.26,0.33-4.56,0.98
			c-1.3,0.65-2.4,1.51-3.3,2.56c-0.9,1.06-1.6,2.26-2.09,3.63c-0.5,1.37-0.84,2.76-1.02,4.19H594.01z"/>
		<path class="st2" d="M662.67,110.35v10.14h-19.82v54.33h-11.82v-54.33h-19.82v-10.14H662.67z"/>
		<path class="st2" d="M683.6,111.93c0,2.11-0.68,3.78-2.05,5.02c-1.37,1.24-2.98,1.86-4.84,1.86c-1.92,0-3.57-0.62-4.93-1.86
			c-1.37-1.24-2.05-2.91-2.05-5.02c0-2.17,0.68-3.88,2.05-5.12c1.36-1.24,3.01-1.86,4.93-1.86c1.86,0,3.47,0.62,4.84,1.86
			C682.92,108.06,683.6,109.76,683.6,111.93z M682.39,174.83h-11.26v-48.66h11.26V174.83z"/>
		<path class="st2" d="M724.44,149.24c0-5.08-0.64-8.76-1.91-11.02c-1.27-2.26-3.64-3.4-7.12-3.4c-1.24,0-2.6,0.09-4.09,0.28
			c-1.49,0.19-2.61,0.34-3.35,0.47v39.26h-11.26v-47.08c2.17-0.62,5.01-1.21,8.51-1.77c3.5-0.56,7.21-0.84,11.12-0.84
			c3.35,0,6.09,0.43,8.23,1.3c2.14,0.87,3.92,2.02,5.35,3.44c0.68-0.5,1.55-1.02,2.6-1.58c1.05-0.56,2.23-1.07,3.54-1.54
			c1.3-0.47,2.68-0.85,4.14-1.16c1.46-0.31,2.93-0.46,4.42-0.46c3.78,0,6.9,0.54,9.35,1.63c2.45,1.09,4.37,2.61,5.77,4.56
			s2.36,4.31,2.89,7.07c0.53,2.76,0.79,5.78,0.79,9.07v27.35h-11.26v-25.59c0-5.08-0.62-8.76-1.86-11.02
			c-1.24-2.26-3.63-3.4-7.16-3.4c-1.8,0-3.51,0.29-5.12,0.88c-1.61,0.59-2.82,1.16-3.63,1.72c0.5,1.55,0.84,3.19,1.02,4.93
			c0.19,1.74,0.28,3.6,0.28,5.58v26.89h-11.26V149.24z"/>
		<path class="st2" d="M774.5,150.73c0-4.28,0.64-8.03,1.91-11.26c1.27-3.22,2.96-5.91,5.07-8.05c2.11-2.14,4.53-3.75,7.26-4.84
			c2.73-1.08,5.52-1.63,8.37-1.63c6.7,0,11.92,2.08,15.68,6.23c3.75,4.16,5.63,10.36,5.63,18.61c0,0.62-0.02,1.32-0.05,2.09
			c-0.03,0.78-0.08,1.47-0.14,2.09h-32.1c0.31,3.91,1.69,6.93,4.14,9.07c2.45,2.14,6,3.21,10.65,3.21c2.73,0,5.22-0.25,7.49-0.74
			c2.26-0.5,4.05-1.02,5.35-1.58l1.49,9.21c-0.62,0.31-1.47,0.64-2.56,0.98c-1.09,0.34-2.33,0.65-3.72,0.93
			c-1.4,0.28-2.9,0.51-4.51,0.7c-1.61,0.19-3.26,0.28-4.93,0.28c-4.28,0-8-0.64-11.16-1.91s-5.77-3.04-7.81-5.3
			c-2.05-2.26-3.57-4.93-4.56-8C774.99,157.76,774.5,154.39,774.5,150.73z M807.15,145.71c0-1.55-0.22-3.02-0.65-4.42
			c-0.43-1.4-1.07-2.61-1.91-3.63c-0.84-1.02-1.86-1.83-3.07-2.42c-1.21-0.59-2.65-0.88-4.33-0.88c-1.74,0-3.26,0.33-4.56,0.98
			c-1.3,0.65-2.4,1.51-3.3,2.56c-0.9,1.06-1.6,2.26-2.09,3.63c-0.5,1.37-0.84,2.76-1.02,4.19H807.15z"/>
		<path class="st2" d="M858.05,136.31c-0.93-0.31-2.22-0.63-3.86-0.98c-1.64-0.34-3.55-0.51-5.72-0.51c-1.24,0-2.56,0.13-3.95,0.37
			c-1.4,0.25-2.37,0.47-2.93,0.65v38.98h-11.26V128.5c2.17-0.81,4.88-1.57,8.14-2.28c3.26-0.71,6.87-1.07,10.84-1.07
			c0.74,0,1.61,0.05,2.61,0.14c0.99,0.09,1.98,0.22,2.98,0.37c0.99,0.16,1.95,0.34,2.88,0.56c0.93,0.22,1.67,0.42,2.23,0.6
			L858.05,136.31z"/>
	</g>
</g>
</svg>
